HIERARCHY
ROOT Hips
{
	OFFSET 0.000000 97.167313 0.000000
	CHANNELS 6 Xposition Yposition Zposition Xrotation Yrotation Zrotation
	JOINT Spine
	{
		OFFSET 0.000000 13.784798 0.064400
		CHANNELS 3 Xrotation Yrotation Zrotation
		JOINT Spine1
		{
			OFFSET 0.000000 12.037903 0.404700
			CHANNELS 3 Xrotation Yrotation Zrotation
			JOINT Spine2
			{
				OFFSET 0.000000 17.795601 0.420200
				CHANNELS 3 Xrotation Yrotation Zrotation
				JOINT Neck
				{
					OFFSET 0.000000 39.131302 11.954600
					CHANNELS 3 Xrotation Yrotation Zrotation
					JOINT Head
					{
						OFFSET 0.000000 14.456192 15.627699
						CHANNELS 3 Xrotation Yrotation Zrotation
						JOINT HeadTop_End
						{
							OFFSET 0.000000 15.703506 7.603401
							CHANNELS 3 Xrotation Yrotation Zrotation
							End Site
							{
								OFFSET 0.000000 17.447403 0.000000
							}
						}
					}
				}
				JOINT LeftShoulder
				{
					OFFSET 17.399500 24.608795 1.168800
					CHANNELS 3 Xrotation Yrotation Zrotation
					JOINT LeftArm
					{
						OFFSET 18.980635 5.765305 1.818600
						CHANNELS 3 Xrotation Yrotation Zrotation
						JOINT LeftForeArm
						{
							OFFSET 49.290169 0.000000 0.000000
							CHANNELS 3 Xrotation Yrotation Zrotation
							JOINT LeftHand
							{
								OFFSET 31.562012 0.000000 0.000000
								CHANNELS 3 Xrotation Yrotation Zrotation
								JOINT LeftHandThumb1
								{
									OFFSET 6.133995 -4.388519 7.076070
									CHANNELS 3 Xrotation Yrotation Zrotation
									JOINT LeftHandThumb2
									{
										OFFSET 6.037666 -3.485840 3.485847
										CHANNELS 3 Xrotation Yrotation Zrotation
										JOINT LeftHandThumb3
										{
											OFFSET 6.496506 -3.750763 3.750761
											CHANNELS 3 Xrotation Yrotation Zrotation
											JOINT LeftHandThumb4
											{
												OFFSET 5.616882 -3.242905 3.242910
												CHANNELS 3 Xrotation Yrotation Zrotation
												End Site
												{
													OFFSET -1.254608 7.132141 0.375429
												}
											}
										}
									}
								}
								JOINT LeftHandPinky1
								{
									OFFSET 18.920792 -0.453171 -11.426712
									CHANNELS 3 Xrotation Yrotation Zrotation
									JOINT LeftHandPinky2
									{
										OFFSET 4.919586 0.000000 0.000000
										CHANNELS 3 Xrotation Yrotation Zrotation
										JOINT LeftHandPinky3
										{
											OFFSET 5.233047 0.000000 0.000000
											CHANNELS 3 Xrotation Yrotation Zrotation
											JOINT LeftHandPinky4
											{
												OFFSET 5.571716 0.000000 0.000000
												CHANNELS 3 Xrotation Yrotation Zrotation
												End Site
												{
													OFFSET -3.459808 4.342407 -0.466164
												}
											}
										}
									}
								}
								JOINT LeftHandRing1
								{
									OFFSET 22.726120 -0.094986 -6.500475
									CHANNELS 3 Xrotation Yrotation Zrotation
									JOINT LeftHandRing2
									{
										OFFSET 6.408615 0.000000 0.000000
										CHANNELS 3 Xrotation Yrotation Zrotation
										JOINT LeftHandRing3
										{
											OFFSET 6.150223 0.000000 0.000000
											CHANNELS 3 Xrotation Yrotation Zrotation
											JOINT LeftHandRing4
											{
												OFFSET 6.145386 0.000000 0.000000
												CHANNELS 3 Xrotation Yrotation Zrotation
												End Site
												{
													OFFSET -3.671402 4.923981 -0.202372
												}
											}
										}
									}
								}
								JOINT LeftHandMiddle1
								{
									OFFSET 23.373947 0.000000 0.000001
									CHANNELS 3 Xrotation Yrotation Zrotation
									JOINT LeftHandMiddle2
									{
										OFFSET 6.996567 0.000000 0.000000
										CHANNELS 3 Xrotation Yrotation Zrotation
										JOINT LeftHandMiddle3
										{
											OFFSET 7.015945 0.000000 0.000000
											CHANNELS 3 Xrotation Yrotation Zrotation
											JOINT LeftHandMiddle4
											{
												OFFSET 7.721573 0.000000 0.000000
												CHANNELS 3 Xrotation Yrotation Zrotation
												End Site
												{
													OFFSET -4.651108 6.158463 0.251582
												}
											}
										}
									}
								}
								JOINT LeftHandIndex1
								{
									OFFSET 21.310577 -0.490082 6.209344
									CHANNELS 3 Xrotation Yrotation Zrotation
									JOINT LeftHandIndex2
									{
										OFFSET 7.536453 0.000000 0.000000
										CHANNELS 3 Xrotation Yrotation Zrotation
										JOINT LeftHandIndex3
										{
											OFFSET 7.512344 0.000000 0.000000
											CHANNELS 3 Xrotation Yrotation Zrotation
											JOINT LeftHandIndex4
											{
												OFFSET 10.212402 0.000000 0.000001
												CHANNELS 3 Xrotation Yrotation Zrotation
												End Site
												{
													OFFSET -5.180801 8.690506 1.388433
												}
											}
										}
									}
								}
							}
						}
					}
				}
				JOINT RightShoulder
				{
					OFFSET -17.399500 24.608795 1.168800
					CHANNELS 3 Xrotation Yrotation Zrotation
					JOINT RightArm
					{
						OFFSET -18.980635 5.765305 1.818600
						CHANNELS 3 Xrotation Yrotation Zrotation
						JOINT RightForeArm
						{
							OFFSET -49.290169 0.000000 0.000000
							CHANNELS 3 Xrotation Yrotation Zrotation
							JOINT RightHand
							{
								OFFSET -31.562012 0.000000 0.000000
								CHANNELS 3 Xrotation Yrotation Zrotation
								JOINT RightHandThumb1
								{
									OFFSET -6.133995 -4.388519 7.076070
									CHANNELS 3 Xrotation Yrotation Zrotation
									JOINT RightHandThumb2
									{
										OFFSET -6.037666 -3.485840 3.485847
										CHANNELS 3 Xrotation Yrotation Zrotation
										JOINT RightHandThumb3
										{
											OFFSET -6.496506 -3.750763 3.750761
											CHANNELS 3 Xrotation Yrotation Zrotation
											JOINT RightHandThumb4
											{
												OFFSET -5.616882 -3.242905 3.242910
												CHANNELS 3 Xrotation Yrotation Zrotation
												End Site
												{
													OFFSET 1.254608 7.132141 0.375429
												}
											}
										}
									}
								}
								JOINT RightHandIndex1
								{
									OFFSET -21.310577 -0.490082 6.209344
									CHANNELS 3 Xrotation Yrotation Zrotation
									JOINT RightHandIndex2
									{
										OFFSET -7.536453 0.000000 0.000000
										CHANNELS 3 Xrotation Yrotation Zrotation
										JOINT RightHandIndex3
										{
											OFFSET -7.512344 0.000000 0.000000
											CHANNELS 3 Xrotation Yrotation Zrotation
											JOINT RightHandIndex4
											{
												OFFSET -10.212402 0.000000 0.000001
												CHANNELS 3 Xrotation Yrotation Zrotation
												End Site
												{
													OFFSET 5.180801 8.690506 1.388433
												}
											}
										}
									}
								}
								JOINT RightHandMiddle1
								{
									OFFSET -23.373947 0.000000 0.000001
									CHANNELS 3 Xrotation Yrotation Zrotation
									JOINT RightHandMiddle2
									{
										OFFSET -6.996567 0.000000 0.000000
										CHANNELS 3 Xrotation Yrotation Zrotation
										JOINT RightHandMiddle3
										{
											OFFSET -7.015945 0.000000 0.000000
											CHANNELS 3 Xrotation Yrotation Zrotation
											JOINT RightHandMiddle4
											{
												OFFSET -7.721573 0.000000 0.000000
												CHANNELS 3 Xrotation Yrotation Zrotation
												End Site
												{
													OFFSET 4.651108 6.158463 0.251582
												}
											}
										}
									}
								}
								JOINT RightHandRing1
								{
									OFFSET -22.726120 -0.094986 -6.500475
									CHANNELS 3 Xrotation Yrotation Zrotation
									JOINT RightHandRing2
									{
										OFFSET -6.408615 0.000000 0.000000
										CHANNELS 3 Xrotation Yrotation Zrotation
										JOINT RightHandRing3
										{
											OFFSET -6.150223 0.000000 0.000000
											CHANNELS 3 Xrotation Yrotation Zrotation
											JOINT RightHandRing4
											{
												OFFSET -6.145386 0.000000 0.000000
												CHANNELS 3 Xrotation Yrotation Zrotation
												End Site
												{
													OFFSET 3.671402 4.923981 -0.202372
												}
											}
										}
									}
								}
								JOINT RightHandPinky1
								{
									OFFSET -18.920792 -0.453171 -11.426712
									CHANNELS 3 Xrotation Yrotation Zrotation
									JOINT RightHandPinky2
									{
										OFFSET -4.919586 0.000000 0.000000
										CHANNELS 3 Xrotation Yrotation Zrotation
										JOINT RightHandPinky3
										{
											OFFSET -5.233047 0.000000 0.000000
											CHANNELS 3 Xrotation Yrotation Zrotation
											JOINT RightHandPinky4
											{
												OFFSET -5.571716 0.000000 0.000000
												CHANNELS 3 Xrotation Yrotation Zrotation
												End Site
												{
													OFFSET 3.459808 4.342407 -0.466164
												}
											}
										}
									}
								}
							}
						}
					}
				}
			}
		}
	}
	JOINT LeftUpLeg
	{
		OFFSET 19.899099 -7.885101 -3.429500
		CHANNELS 3 Xrotation Yrotation Zrotation
		JOINT LeftLeg
		{
			OFFSET 1.745560 -36.997807 10.304700
			CHANNELS 3 Xrotation Yrotation Zrotation
			JOINT LeftFoot
			{
				OFFSET -1.745558 -29.803308 -13.615400
				CHANNELS 3 Xrotation Yrotation Zrotation
				JOINT LeftToeBase
				{
					OFFSET 1.181900 -18.539904 15.226099
					CHANNELS 3 Xrotation Yrotation Zrotation
					JOINT LeftToe_End
					{
						OFFSET -0.863701 1.402801 16.534700
						CHANNELS 3 Xrotation Yrotation Zrotation
						End Site
						{
							OFFSET 0.000000 16.616566 0.000000
						}
					}
				}
			}
		}
	}
	JOINT RightUpLeg
	{
		OFFSET -19.899099 -7.885101 -3.429500
		CHANNELS 3 Xrotation Yrotation Zrotation
		JOINT RightLeg
		{
			OFFSET -1.745560 -36.997807 10.304700
			CHANNELS 3 Xrotation Yrotation Zrotation
			JOINT RightFoot
			{
				OFFSET 1.745558 -29.803308 -13.615400
				CHANNELS 3 Xrotation Yrotation Zrotation
				JOINT RightToeBase
				{
					OFFSET -1.181900 -18.539904 15.226099
					CHANNELS 3 Xrotation Yrotation Zrotation
					JOINT RightToe_End
					{
						OFFSET 0.863701 1.402801 16.534700
						CHANNELS 3 Xrotation Yrotation Zrotation
						End Site
						{
							OFFSET 0.000000 16.616566 0.000000
						}
					}
				}
			}
		}
	}
}
MOTION
Frames: 4
Frame Time: 0.033333
-2.641239 60.194511 5.215918 39.448669 -47.488246 30.927117 17.982307 -2.184635 -2.768613 8.911011 -2.903186 -0.073247 8.929132 -2.831432 -0.009265 -16.332089 28.330923 -15.674591 -30.215746 20.920419 4.550400 0.000000 0.000000 0.000000 10.043359 -9.628081 -9.131300 -81.104801 -3.169599 -29.432586 39.893004 -27.994995 31.074089 -3.191601 2.037410 8.497247 40.109979 -15.297103 -0.359993 5.639653 28.097559 11.338839 1.088526 40.898391 22.734425 0.000003 0.000001 0.000000 -17.947307 14.755056 -51.486075 8.868908 8.666922 -84.812453 4.537790 8.851091 -59.152594 0.000002 0.000000 -0.000006 -9.042932 10.045753 -60.766117 8.524221 9.508791 -66.893807 6.575030 9.896225 -70.384239 -0.000001 0.000000 0.000003 -2.346199 4.689374 -62.655067 8.754246 9.897023 -87.051328 1.994926 4.928638 -37.483545 0.000001 -0.000000 0.000004 6.881585 2.840449 -61.140513 8.247837 7.639995 -89.898294 2.146514 8.173779 -41.827006 -0.000003 0.000003 0.000001 9.582879 17.871798 22.407001 -18.056502 -0.145303 17.141845 -30.495545 23.458718 12.791267 -0.470461 -5.648799 -6.276066 -2.345489 -6.101518 10.731467 2.364387 -23.807412 -8.771397 -5.016433 13.991214 5.863692 -0.000002 0.000000 0.000003 -0.053158 0.532253 0.731537 0.020105 -0.087184 5.084438 -0.002129 -2.005308 -2.820870 0.000002 0.000002 0.000001 0.348307 -5.918863 2.582941 1.432624 -4.204210 24.051736 0.107477 1.672438 -1.411962 0.000002 0.000001 -0.000004 1.205826 -11.756080 4.154247 1.794864 -3.771791 26.866023 1.319946 -3.995797 19.486639 0.000001 -0.000000 -0.000005 2.126249 -19.166749 11.320048 3.354725 -2.122200 18.828053 6.367327 -5.016258 28.949286 -0.000000 -0.000001 0.000004 -82.016256 0.860880 44.656849 86.462559 1.847381 -5.292366 -15.822150 -1.672333 -0.649060 -1.306190 0.096344 -2.820594 -0.000000 -0.000000 0.000001 -74.003201 10.401470 -6.368760 85.389181 1.225705 2.450136 -36.004314 0.866167 7.564631 -1.746632 -0.991825 2.110555 -0.000000 -0.000000 -0.000000 
-2.612043 59.378334 1.819965 40.101342 -47.952070 30.277713 17.267393 -1.977032 -0.855580 9.257697 -3.083934 -0.552264 9.242460 -2.974980 -0.550272 -16.902589 28.187363 -15.318163 -30.187329 20.848749 4.857940 -0.000000 -0.000000 -0.000000 9.821330 -9.495620 -8.998706 -80.680175 -2.648646 -29.622445 40.477532 -28.910746 32.589937 -3.180460 2.031617 8.256947 40.109979 -15.297103 -0.359990 5.639654 28.097559 11.338843 1.088535 40.898384 22.734418 0.000001 0.000001 0.000000 -17.947306 14.755058 -51.486079 8.868908 8.666924 -84.812447 4.537789 8.851088 -59.152594 -0.000000 -0.000000 -0.000004 -9.042934 10.045752 -60.766117 8.524220 9.508790 -66.893800 6.575029 9.896226 -70.384239 -0.000000 0.000000 0.000002 -2.346200 4.689373 -62.655067 8.754247 9.897021 -87.051321 1.994929 4.928641 -37.483549 0.000001 -0.000001 0.000006 6.881583 2.840444 -61.140507 8.247844 7.639994 -89.898301 2.146516 8.173770 -41.827003 -0.000003 0.000003 -0.000001 9.154467 18.015596 23.057911 -17.435917 0.171110 16.014931 -28.930140 22.945930 11.710646 0.119326 -2.269135 -9.221509 -2.345492 -6.101512 10.731463 2.364385 -23.807412 -8.771403 -5.010578 13.981231 5.859746 0.000002 -0.000001 0.000002 -0.053134 0.532266 0.733500 0.020111 -0.087263 5.084147 -0.002144 -2.005362 -2.827704 -0.000000 -0.000003 -0.000002 0.348305 -5.918819 2.583317 1.432637 -4.204257 24.051635 0.107476 1.672330 -1.413284 -0.000005 0.000001 -0.000009 1.205860 -11.756124 4.154041 1.794927 -3.771805 26.866756 1.319906 -3.995732 19.485638 -0.000002 0.000001 -0.000005 2.126263 -19.166771 11.320094 3.354708 -2.122210 18.827644 6.367280 -5.016190 28.949928 -0.000001 0.000003 0.000003 -80.051142 10.488471 40.326373 97.135686 2.827679 -3.042011 -19.278026 -1.715706 5.842935 -13.003365 5.868706 -21.383587 0.000000 0.000000 -0.000000 -78.623141 6.707107 -1.692664 86.127634 -1.631051 1.510145 -32.610462 2.039055 5.542969 -1.746615 -0.991794 2.110544 -0.000000 -0.000002 -0.000000 
-2.607061 58.456238 -2.061983 40.580415 -48.382984 29.382302 16.688561 -1.840369 1.262745 9.586633 -3.273473 -1.045566 9.537351 -3.122301 -1.103513 -17.441458 28.038879 -14.996312 -30.146143 20.784653 5.124626 0.000000 -0.000001 0.000001 9.596090 -9.443065 -8.919767 -80.263588 -2.216783 -29.744128 41.093229 -29.828078 34.161396 -3.173605 2.058028 8.036506 40.109975 -15.297107 -0.359990 5.639657 28.097558 11.338842 1.088530 40.898384 22.734420 -0.000002 0.000002 0.000002 -17.947307 14.755054 -51.486075 8.868908 8.666918 -84.812447 4.537787 8.851092 -59.152594 -0.000001 -0.000001 -0.000002 -9.042934 10.045752 -60.766117 8.524220 9.508788 -66.893807 6.575031 9.896224 -70.384246 -0.000000 0.000001 0.000003 -2.346200 4.689372 -62.655067 8.754247 9.897021 -87.051328 1.994928 4.928639 -37.483545 0.000001 0.000000 0.000002 6.881586 2.840447 -61.140513 8.247839 7.639997 -89.898301 2.146514 8.173778 -41.827003 -0.000000 0.000001 0.000001 8.928641 17.851709 23.551462 -16.960613 0.301372 15.490239 -28.261938 22.329917 11.143531 1.084427 1.056600 -13.084815 -2.345498 -6.101516 10.731463 2.364388 -23.807408 -8.771400 -5.018738 13.995391 5.865498 0.000001 -0.000001 -0.000000 -0.053122 0.532281 0.729752 0.020084 -0.087258 5.085478 -0.002090 -2.005382 -2.816520 -0.000002 0.000003 -0.000003 0.348288 -5.918745 2.583176 1.432646 -4.204261 24.051744 0.107492 1.672281 -1.412982 -0.000004 0.000001 -0.000001 1.205859 -11.756113 4.154200 1.794857 -3.771777 26.866353 1.319962 -3.995715 19.485807 -0.000002 0.000001 -0.000007 2.126259 -19.166638 11.320014 3.354685 -2.122215 18.827915 6.367305 -5.016173 28.949716 -0.000004 -0.000001 0.000004 -74.559670 19.827807 36.376208 101.989730 2.859979 -2.464471 -17.184911 -1.534124 7.955633 -32.781995 15.368902 -16.202404 -0.000000 -0.000000 0.000000 -83.046576 2.106421 3.140631 86.211624 -5.180376 0.320938 -28.469371 3.361866 3.193441 -1.746610 -0.991861 2.110544 0.000000 0.000001 0.000000 
-2.507107 56.958916 -6.005445 40.518390 -48.764641 27.741660 16.514646 -1.864283 4.008619 9.871294 -3.500983 -1.586801 9.785505 -3.289404 -1.694328 -17.809923 27.944418 -14.798223 -30.048529 20.769574 5.219949 -0.000001 0.000000 -0.000000 9.524394 -9.572953 -8.858320 -79.923786 -1.720279 -29.691065 41.780800 -30.930908 36.093612 -3.206657 2.206973 8.028533 40.109979 -15.297103 -0.359989 5.639660 28.097554 11.338839 1.088532 40.898391 22.734416 -0.000003 0.000000 0.000001 -17.947309 14.755058 -51.486079 8.868910 8.666917 -84.812453 4.537789 8.851093 -59.152594 -0.000000 0.000002 -0.000002 -9.042931 10.045752 -60.766117 8.524220 9.508788 -66.893807 6.575031 9.896226 -70.384246 0.000000 -0.000000 0.000005 -2.346201 4.689372 -62.655074 8.754247 9.897022 -87.051328 1.994927 4.928636 -37.483549 0.000002 -0.000000 0.000004 6.881583 2.840449 -61.140513 8.247838 7.639997 -89.898301 2.146513 8.173775 -41.827003 -0.000002 0.000003 -0.000001 8.791256 17.595351 23.924158 -16.488169 0.167573 15.114529 -27.823520 21.860673 10.759040 2.509804 4.197166 -16.846030 -2.345491 -6.101517 10.731468 2.364383 -23.807410 -8.771400 -5.015139 13.988898 5.862627 0.000001 0.000001 0.000003 -0.053123 0.532248 0.731965 0.020100 -0.087207 5.083426 -0.002117 -2.005227 -2.820123 -0.000000 -0.000001 -0.000001 0.348302 -5.918823 2.583267 1.432656 -4.204210 24.051855 0.107480 1.672233 -1.413497 -0.000001 -0.000001 -0.000004 1.205850 -11.756122 4.154285 1.794869 -3.771773 26.866387 1.319923 -3.995687 19.485782 -0.000000 0.000002 -0.000001 2.126253 -19.166764 11.320185 3.354721 -2.122233 18.827596 6.367241 -5.016152 28.949658 -0.000001 -0.000000 0.000006 -68.302076 28.920810 31.558616 103.853655 0.857520 -1.931430 -11.724821 -1.361812 9.574415 -52.965405 16.552479 -7.988896 0.000000 -0.000000 0.000000 -87.090847 -3.255125 7.989207 86.160746 -7.835368 -0.991280 -24.055142 3.254450 -0.039017 -1.746613 -0.991812 2.110556 0.000000 0.000003 0.000000 
